<?xml version="1.0" encoding="UTF-8" standalone="no"?>
<!-- Created with Inkscape (http://www.inkscape.org/) -->

<svg
   xmlns:dc="http://purl.org/dc/elements/1.1/"
   xmlns:cc="http://creativecommons.org/ns#"
   xmlns:rdf="http://www.w3.org/1999/02/22-rdf-syntax-ns#"
   xmlns:svg="http://www.w3.org/2000/svg"
   xmlns="http://www.w3.org/2000/svg"
   xmlns:xlink="http://www.w3.org/1999/xlink"
   xmlns:sodipodi="http://sodipodi.sourceforge.net/DTD/sodipodi-0.dtd"
   xmlns:inkscape="http://www.inkscape.org/namespaces/inkscape"
   width="217.28508"
   height="156.61287"
   id="svg2"
   version="1.1"
   inkscape:version="0.48.5 r10040"
   sodipodi:docname="Control.svg">
  <defs
     id="defs4">
    <marker
       inkscape:stockid="Arrow2Lend"
       orient="auto"
       refY="0"
       refX="0"
       id="Arrow2Lend"
       style="overflow:visible">
      <path
         id="path6506"
         style="fill-rule:evenodd;stroke-width:0.625;stroke-linejoin:round"
         d="M 8.7185878,4.0337352 -2.2072895,0.01601326 8.7185884,-4.0017078 c -1.7454984,2.3720609 -1.7354408,5.6174519 -6e-7,8.035443 z"
         transform="matrix(-1.1,0,0,-1.1,-1.1,0)"
         inkscape:connector-curvature="0" />
    </marker>
    <marker
       inkscape:stockid="Arrow2Lstart"
       orient="auto"
       refY="0"
       refX="0"
       id="Arrow2Lstart"
       style="overflow:visible">
      <path
         id="path6503"
         style="fill-rule:evenodd;stroke-width:0.625;stroke-linejoin:round"
         d="M 8.7185878,4.0337352 -2.2072895,0.01601326 8.7185884,-4.0017078 c -1.7454984,2.3720609 -1.7354408,5.6174519 -6e-7,8.035443 z"
         transform="matrix(1.1,0,0,1.1,1.1,0)"
         inkscape:connector-curvature="0" />
    </marker>
    <marker
       inkscape:stockid="Arrow1Lstart"
       orient="auto"
       refY="0"
       refX="0"
       id="Arrow1Lstart"
       style="overflow:visible">
      <path
         id="path6485"
         d="M 0,0 5,-5 -12.5,0 5,5 0,0 z"
         style="fill-rule:evenodd;stroke:#000000;stroke-width:1pt"
         transform="matrix(0.8,0,0,0.8,10,0)"
         inkscape:connector-curvature="0" />
    </marker>
    <linearGradient
       id="linearGradient5482">
      <stop
         style="stop-color:#000000;stop-opacity:1;"
         offset="0"
         id="stop5484" />
      <stop
         style="stop-color:#969696;stop-opacity:1;"
         offset="1"
         id="stop5486" />
    </linearGradient>
    <linearGradient
       inkscape:collect="always"
       xlink:href="#linearGradient5482"
       id="linearGradient5488"
       x1="114.12504"
       y1="93.612633"
       x2="228.79941"
       y2="93.612633"
       gradientUnits="userSpaceOnUse" />
    <linearGradient
       inkscape:collect="always"
       xlink:href="#linearGradient5482"
       id="linearGradient6463"
       gradientUnits="userSpaceOnUse"
       x1="114.12504"
       y1="93.612633"
       x2="228.79941"
       y2="93.612633" />
    <linearGradient
       inkscape:collect="always"
       xlink:href="#linearGradient5482"
       id="linearGradient6465"
       gradientUnits="userSpaceOnUse"
       x1="114.12504"
       y1="93.612633"
       x2="228.79941"
       y2="93.612633" />
    <linearGradient
       inkscape:collect="always"
       xlink:href="#linearGradient5482"
       id="linearGradient6467"
       gradientUnits="userSpaceOnUse"
       x1="114.12504"
       y1="93.612633"
       x2="228.79941"
       y2="93.612633" />
    <linearGradient
       inkscape:collect="always"
       xlink:href="#linearGradient5482"
       id="linearGradient6469"
       gradientUnits="userSpaceOnUse"
       x1="114.12504"
       y1="93.612633"
       x2="228.79941"
       y2="93.612633" />
    <linearGradient
       inkscape:collect="always"
       xlink:href="#linearGradient5482"
       id="linearGradient6471"
       gradientUnits="userSpaceOnUse"
       x1="114.12504"
       y1="93.612633"
       x2="228.79941"
       y2="93.612633" />
    <linearGradient
       inkscape:collect="always"
       xlink:href="#linearGradient5482"
       id="linearGradient6473"
       gradientUnits="userSpaceOnUse"
       x1="114.12504"
       y1="93.612633"
       x2="228.79941"
       y2="93.612633" />
    <linearGradient
       inkscape:collect="always"
       xlink:href="#linearGradient5482"
       id="linearGradient6475"
       gradientUnits="userSpaceOnUse"
       x1="114.12504"
       y1="93.612633"
       x2="228.79941"
       y2="93.612633" />
    <linearGradient
       inkscape:collect="always"
       xlink:href="#linearGradient5482"
       id="linearGradient6477"
       gradientUnits="userSpaceOnUse"
       x1="114.12504"
       y1="93.612633"
       x2="228.79941"
       y2="93.612633" />
  </defs>
  <sodipodi:namedview
     id="base"
     pagecolor="#ffffff"
     bordercolor="#666666"
     borderopacity="1.0"
     inkscape:pageopacity="0.0"
     inkscape:pageshadow="2"
     inkscape:zoom="2.8"
     inkscape:cx="100.22481"
     inkscape:cy="75.497792"
     inkscape:document-units="px"
     inkscape:current-layer="layer1"
     showgrid="false"
     inkscape:window-width="1436"
     inkscape:window-height="855"
     inkscape:window-x="4"
     inkscape:window-y="0"
     inkscape:window-maximized="1"
     fit-margin-top="0"
     fit-margin-left="0"
     fit-margin-right="0"
     fit-margin-bottom="0" />
  <metadata
     id="metadata7">
    <rdf:RDF>
      <cc:Work
         rdf:about="">
        <dc:format>image/svg+xml</dc:format>
        <dc:type
           rdf:resource="http://purl.org/dc/dcmitype/StillImage" />
        <dc:title />
      </cc:Work>
    </rdf:RDF>
  </metadata>
  <g
     inkscape:label="Calque 1"
     inkscape:groupmode="layer"
     id="layer1"
     transform="translate(-87.63978,-154.32075)">
    <g
       id="g3887"
       transform="translate(-277.85715,70.714286)">
      <path
         d="m 172.73609,230.09801 c 0,3.90524 -3.39196,7.07107 -7.57615,7.07107 -4.18419,0 -7.57614,-3.16583 -7.57614,-7.07107 0,-3.90525 3.39195,-7.07107 7.57614,-7.07107 4.18419,0 7.57615,3.16582 7.57615,7.07107 z"
         sodipodi:ry="7.0710678"
         sodipodi:rx="7.5761442"
         sodipodi:cy="230.09801"
         sodipodi:cx="165.15994"
         id="path3883"
         style="fill:#ffffff;fill-opacity:1;fill-rule:evenodd;stroke:#000000;stroke-width:1px;stroke-linecap:butt;stroke-linejoin:miter;stroke-opacity:1"
         sodipodi:type="arc"
         transform="matrix(0.80398094,0,0,0.80398094,239.20455,28.023944)" />
      <path
         transform="matrix(0.45817331,0,0,0.45817331,296.33448,107.5936)"
         sodipodi:type="arc"
         style="fill:#000000;fill-opacity:1;fill-rule:evenodd;stroke:#000000;stroke-width:1px;stroke-linecap:butt;stroke-linejoin:miter;stroke-opacity:1"
         id="path3885"
         sodipodi:cx="165.15994"
         sodipodi:cy="230.09801"
         sodipodi:rx="7.5761442"
         sodipodi:ry="7.0710678"
         d="m 172.73609,230.09801 c 0,3.90524 -3.39196,7.07107 -7.57615,7.07107 -4.18419,0 -7.57614,-3.16583 -7.57614,-7.07107 0,-3.90525 3.39195,-7.07107 7.57614,-7.07107 4.18419,0 7.57615,3.16582 7.57615,7.07107 z" />
    </g>
    <g
       transform="translate(-88.061691,-15.154839)"
       id="g3910"
       style="stroke:#006ab6;stroke-opacity:1">
      <path
         transform="matrix(0.80398094,0,0,0.80398094,239.20455,28.023944)"
         sodipodi:type="arc"
         style="fill:#ffffff;fill-opacity:1;fill-rule:evenodd;stroke:#006ab6;stroke-width:1px;stroke-linecap:butt;stroke-linejoin:miter;stroke-opacity:1"
         id="path3912"
         sodipodi:cx="165.15994"
         sodipodi:cy="230.09801"
         sodipodi:rx="7.5761442"
         sodipodi:ry="7.0710678"
         d="m 172.73609,230.09801 c 0,3.90524 -3.39196,7.07107 -7.57615,7.07107 -4.18419,0 -7.57614,-3.16583 -7.57614,-7.07107 0,-3.90525 3.39195,-7.07107 7.57614,-7.07107 4.18419,0 7.57615,3.16582 7.57615,7.07107 z" />
      <path
         d="m 172.73609,230.09801 c 0,3.90524 -3.39196,7.07107 -7.57615,7.07107 -4.18419,0 -7.57614,-3.16583 -7.57614,-7.07107 0,-3.90525 3.39195,-7.07107 7.57614,-7.07107 4.18419,0 7.57615,3.16582 7.57615,7.07107 z"
         sodipodi:ry="7.0710678"
         sodipodi:rx="7.5761442"
         sodipodi:cy="230.09801"
         sodipodi:cx="165.15994"
         id="path3914"
         style="fill:#000000;fill-opacity:1;fill-rule:evenodd;stroke:#006ab6;stroke-width:1px;stroke-linecap:butt;stroke-linejoin:miter;stroke-opacity:1"
         sodipodi:type="arc"
         transform="matrix(0.45817331,0,0,0.45817331,296.33448,107.5936)" />
    </g>
    <path
       style="fill:none;stroke:#b4b4b4;stroke-width:1;stroke-linecap:butt;stroke-linejoin:miter;stroke-miterlimit:4;stroke-opacity:1;stroke-dasharray:4, 4;stroke-dashoffset:0"
       d="m 94.285714,284.50504 c 0,0 23.571426,-101.42857 187.142856,-87.14286"
       id="path3927"
       inkscape:connector-curvature="0" />
    <text
       sodipodi:linespacing="100%"
       id="text3935"
       y="310.93362"
       x="87.85714"
       style="font-size:40px;font-style:normal;font-weight:normal;line-height:100%;letter-spacing:0px;word-spacing:0px;fill:#000000;fill-opacity:1;stroke:none;font-family:Sans"
       xml:space="preserve"><tspan
         style="font-size:20px;line-height:100%"
         y="310.93362"
         x="87.85714"
         id="tspan3937"
         sodipodi:role="line">K</tspan></text>
    <text
       xml:space="preserve"
       style="font-size:40px;font-style:normal;font-weight:normal;line-height:100%;letter-spacing:0px;word-spacing:0px;fill:#000000;fill-opacity:1;stroke:none;font-family:Sans"
       x="264.16315"
       y="186.45102"
       id="text3939"
       sodipodi:linespacing="100%"><tspan
         sodipodi:role="line"
         id="tspan3941"
         x="264.16315"
         y="186.45102"
         style="font-size:20px;line-height:100%">K+1</tspan></text>
    <g
       style="fill:url(#linearGradient6477);fill-opacity:1"
       transform="matrix(0.46786979,-0.88379742,0.88379742,0.46786979,14.80528,313.21164)"
       id="g6447">
      <path
         style="fill:url(#linearGradient6463);fill-opacity:1;stroke:#000000;stroke-width:1px;stroke-linecap:butt;stroke-linejoin:miter;stroke-opacity:1"
         d="M 120.16321,96.6276 214.0772,94.040352"
         id="path6449"
         inkscape:connector-curvature="0" />
      <path
         style="fill:url(#linearGradient6465);fill-opacity:1;stroke:#000000;stroke-width:1px;stroke-linecap:butt;stroke-linejoin:miter;stroke-opacity:1"
         d="m 169.60051,45.720437 0.0155,97.190113"
         id="path6451"
         inkscape:connector-curvature="0" />
      <path
         sodipodi:type="arc"
         style="fill:url(#linearGradient6467);fill-opacity:1;fill-rule:evenodd;stroke:#000000;stroke-width:1px;stroke-linecap:butt;stroke-linejoin:miter;stroke-opacity:1"
         id="path6453"
         sodipodi:cx="165.15994"
         sodipodi:cy="230.09801"
         sodipodi:rx="7.5761442"
         sodipodi:ry="7.0710678"
         d="m 172.73609,230.09801 c 0,3.90524 -3.39196,7.07107 -7.57615,7.07107 -4.18419,0 -7.57614,-3.16583 -7.57614,-7.07107 0,-3.90525 3.39195,-7.07107 7.57614,-7.07107 4.18419,0 7.57615,3.16582 7.57615,7.07107 z"
         transform="matrix(0.6133467,0.78981379,-0.78981379,0.6133467,202.32469,-174.37067)" />
      <path
         d="m 172.73609,230.09801 c 0,3.90524 -3.39196,7.07107 -7.57615,7.07107 -4.18419,0 -7.57614,-3.16583 -7.57614,-7.07107 0,-3.90525 3.39195,-7.07107 7.57614,-7.07107 4.18419,0 7.57615,3.16582 7.57615,7.07107 z"
         sodipodi:ry="7.0710678"
         sodipodi:rx="7.5761442"
         sodipodi:cy="230.09801"
         sodipodi:cx="165.15994"
         id="path6455"
         style="fill:url(#linearGradient6469);fill-opacity:1;fill-rule:evenodd;stroke:#000000;stroke-width:1px;stroke-linecap:butt;stroke-linejoin:miter;stroke-opacity:1"
         sodipodi:type="arc"
         transform="matrix(0.6133467,0.78981379,-0.78981379,0.6133467,250.16956,-228.35776)" />
      <path
         transform="matrix(0.6133467,0.78981379,-0.78981379,0.6133467,301.4683,-177.4332)"
         sodipodi:type="arc"
         style="fill:url(#linearGradient6471);fill-opacity:1;fill-rule:evenodd;stroke:#000000;stroke-width:1px;stroke-linecap:butt;stroke-linejoin:miter;stroke-opacity:1"
         id="path6457"
         sodipodi:cx="165.15994"
         sodipodi:cy="230.09801"
         sodipodi:rx="7.5761442"
         sodipodi:ry="7.0710678"
         d="m 172.73609,230.09801 c 0,3.90524 -3.39196,7.07107 -7.57615,7.07107 -4.18419,0 -7.57614,-3.16583 -7.57614,-7.07107 0,-3.90525 3.39195,-7.07107 7.57614,-7.07107 4.18419,0 7.57615,3.16582 7.57615,7.07107 z" />
      <path
         d="m 172.73609,230.09801 c 0,3.90524 -3.39196,7.07107 -7.57615,7.07107 -4.18419,0 -7.57614,-3.16583 -7.57614,-7.07107 0,-3.90525 3.39195,-7.07107 7.57614,-7.07107 4.18419,0 7.57615,3.16582 7.57615,7.07107 z"
         sodipodi:ry="7.0710678"
         sodipodi:rx="7.5761442"
         sodipodi:cy="230.09801"
         sodipodi:cx="165.15994"
         id="path6459"
         style="fill:url(#linearGradient6473);fill-opacity:1;fill-rule:evenodd;stroke:#000000;stroke-width:1px;stroke-linecap:butt;stroke-linejoin:miter;stroke-opacity:1"
         sodipodi:type="arc"
         transform="matrix(0.6133467,0.78981379,-0.78981379,0.6133467,248.90219,-127.56788)" />
      <path
         transform="matrix(1.2801288,1.2268325,-0.69191785,0.72197623,118.35038,-273.19822)"
         sodipodi:type="arc"
         style="fill:url(#linearGradient6475);fill-opacity:1;fill-rule:evenodd;stroke:#000000;stroke-width:1px;stroke-linecap:butt;stroke-linejoin:miter;stroke-opacity:1"
         id="path6461"
         sodipodi:cx="165.15994"
         sodipodi:cy="230.09801"
         sodipodi:rx="7.5761442"
         sodipodi:ry="7.0710678"
         d="m 172.73609,230.09801 c 0,3.90524 -3.39196,7.07107 -7.57615,7.07107 -4.18419,0 -7.57614,-3.16583 -7.57614,-7.07107 0,-3.90525 3.39195,-7.07107 7.57614,-7.07107 4.18419,0 7.57615,3.16582 7.57615,7.07107 z" />
    </g>
    <path
       style="fill:none;stroke:#000000;stroke-width:1px;stroke-linecap:butt;stroke-linejoin:miter;stroke-opacity:1;marker-start:url(#Arrow2Lstart);marker-end:url(#Arrow2Lend)"
       d="m 201.02036,290.20209 84.34773,-6.06092 4.54569,-0.50508"
       id="path6479"
       inkscape:connector-curvature="0"
       sodipodi:nodetypes="ccc" />
    <text
       xml:space="preserve"
       style="font-size:40px;font-style:normal;font-weight:normal;line-height:125%;letter-spacing:0px;word-spacing:0px;fill:#000000;fill-opacity:1;stroke:none;font-family:Sans"
       x="202.40204"
       y="298.52866"
       id="text7299"
       sodipodi:linespacing="125%"
       transform="matrix(0.99720772,-0.07467777,0.07467777,0.99720772,0,0)"><tspan
         sodipodi:role="line"
         x="202.40204"
         y="298.52866"
         style="font-size:16px"
         id="tspan7311">error</tspan></text>
    <path
       style="fill:none;stroke:#000000;stroke-width:1;stroke-linecap:butt;stroke-linejoin:miter;stroke-miterlimit:4;stroke-opacity:1;stroke-dasharray:2, 2;stroke-dashoffset:0"
       d="m 199.00006,289.19193 -7.07107,-86.87312"
       id="path7303"
       inkscape:connector-curvature="0" />
    <path
       inkscape:connector-curvature="0"
       id="path7305"
       d="m 289.87318,283.13101 -7.07107,-86.87312"
       style="fill:none;stroke:#000000;stroke-width:1;stroke-linecap:butt;stroke-linejoin:miter;stroke-miterlimit:4;stroke-opacity:1;stroke-dasharray:2, 2;stroke-dashoffset:0" />
  </g>
</svg>
