<?xml version="1.0" encoding="UTF-8" standalone="no"?>
<!-- Created with Inkscape (http://www.inkscape.org/) -->

<svg
   xmlns:dc="http://purl.org/dc/elements/1.1/"
   xmlns:cc="http://creativecommons.org/ns#"
   xmlns:rdf="http://www.w3.org/1999/02/22-rdf-syntax-ns#"
   xmlns:svg="http://www.w3.org/2000/svg"
   xmlns="http://www.w3.org/2000/svg"
   xmlns:xlink="http://www.w3.org/1999/xlink"
   xmlns:sodipodi="http://sodipodi.sourceforge.net/DTD/sodipodi-0.dtd"
   xmlns:inkscape="http://www.inkscape.org/namespaces/inkscape"
   width="507.47034"
   height="278.61722"
   id="svg2"
   version="1.1"
   inkscape:version="0.48.5 r10040"
   sodipodi:docname="PId.svg">
  <defs
     id="defs4">
    <marker
       inkscape:stockid="TriangleInL"
       orient="auto"
       refY="0"
       refX="0"
       id="TriangleInL"
       style="overflow:visible">
      <path
         id="path4131"
         d="m 5.77,0 -8.65,5 0,-10 8.65,5 z"
         style="fill-rule:evenodd;stroke:#000000;stroke-width:1pt"
         transform="scale(-0.8,-0.8)"
         inkscape:connector-curvature="0" />
    </marker>
    <marker
       inkscape:stockid="TriangleOutL"
       orient="auto"
       refY="0"
       refX="0"
       id="TriangleOutL"
       style="overflow:visible">
      <path
         id="path4140"
         d="m 5.77,0 -8.65,5 0,-10 8.65,5 z"
         style="fill-rule:evenodd;stroke:#000000;stroke-width:1pt"
         transform="scale(0.8,0.8)"
         inkscape:connector-curvature="0" />
    </marker>
    <linearGradient
       id="linearGradient5482">
      <stop
         style="stop-color:#000000;stop-opacity:1;"
         offset="0"
         id="stop5484" />
      <stop
         style="stop-color:#969696;stop-opacity:1;"
         offset="1"
         id="stop5486" />
    </linearGradient>
    <linearGradient
       inkscape:collect="always"
       xlink:href="#linearGradient5482"
       id="linearGradient5488"
       x1="114.12504"
       y1="93.612633"
       x2="228.79941"
       y2="93.612633"
       gradientUnits="userSpaceOnUse" />
    <linearGradient
       inkscape:collect="always"
       xlink:href="#linearGradient5482"
       id="linearGradient5490"
       gradientUnits="userSpaceOnUse"
       x1="114.12504"
       y1="93.612633"
       x2="228.79941"
       y2="93.612633" />
    <linearGradient
       inkscape:collect="always"
       xlink:href="#linearGradient5482"
       id="linearGradient5492"
       gradientUnits="userSpaceOnUse"
       x1="114.12504"
       y1="93.612633"
       x2="228.79941"
       y2="93.612633" />
    <linearGradient
       inkscape:collect="always"
       xlink:href="#linearGradient5482"
       id="linearGradient5494"
       gradientUnits="userSpaceOnUse"
       x1="114.12504"
       y1="93.612633"
       x2="228.79941"
       y2="93.612633" />
    <linearGradient
       inkscape:collect="always"
       xlink:href="#linearGradient5482"
       id="linearGradient5496"
       gradientUnits="userSpaceOnUse"
       x1="114.12504"
       y1="93.612633"
       x2="228.79941"
       y2="93.612633" />
    <linearGradient
       inkscape:collect="always"
       xlink:href="#linearGradient5482"
       id="linearGradient5498"
       gradientUnits="userSpaceOnUse"
       x1="114.12504"
       y1="93.612633"
       x2="228.79941"
       y2="93.612633" />
    <linearGradient
       inkscape:collect="always"
       xlink:href="#linearGradient5482"
       id="linearGradient5500"
       gradientUnits="userSpaceOnUse"
       x1="114.12504"
       y1="93.612633"
       x2="228.79941"
       y2="93.612633" />
    <linearGradient
       inkscape:collect="always"
       xlink:href="#linearGradient5482"
       id="linearGradient5502"
       gradientUnits="userSpaceOnUse"
       x1="114.12504"
       y1="93.612633"
       x2="228.79941"
       y2="93.612633" />
    <linearGradient
       inkscape:collect="always"
       xlink:href="#linearGradient5482"
       id="linearGradient5780"
       gradientUnits="userSpaceOnUse"
       x1="114.12504"
       y1="93.612633"
       x2="228.79941"
       y2="93.612633" />
    <linearGradient
       inkscape:collect="always"
       xlink:href="#linearGradient5482"
       id="linearGradient5782"
       gradientUnits="userSpaceOnUse"
       x1="114.12504"
       y1="93.612633"
       x2="228.79941"
       y2="93.612633" />
    <linearGradient
       inkscape:collect="always"
       xlink:href="#linearGradient5482"
       id="linearGradient5784"
       gradientUnits="userSpaceOnUse"
       x1="114.12504"
       y1="93.612633"
       x2="228.79941"
       y2="93.612633" />
    <linearGradient
       inkscape:collect="always"
       xlink:href="#linearGradient5482"
       id="linearGradient5786"
       gradientUnits="userSpaceOnUse"
       x1="114.12504"
       y1="93.612633"
       x2="228.79941"
       y2="93.612633" />
    <linearGradient
       inkscape:collect="always"
       xlink:href="#linearGradient5482"
       id="linearGradient5788"
       gradientUnits="userSpaceOnUse"
       x1="114.12504"
       y1="93.612633"
       x2="228.79941"
       y2="93.612633" />
    <linearGradient
       inkscape:collect="always"
       xlink:href="#linearGradient5482"
       id="linearGradient5790"
       gradientUnits="userSpaceOnUse"
       x1="114.12504"
       y1="93.612633"
       x2="228.79941"
       y2="93.612633" />
    <linearGradient
       inkscape:collect="always"
       xlink:href="#linearGradient5482"
       id="linearGradient5792"
       gradientUnits="userSpaceOnUse"
       x1="114.12504"
       y1="93.612633"
       x2="228.79941"
       y2="93.612633" />
    <linearGradient
       inkscape:collect="always"
       xlink:href="#linearGradient5482"
       id="linearGradient5794"
       gradientUnits="userSpaceOnUse"
       x1="114.12504"
       y1="93.612633"
       x2="228.79941"
       y2="93.612633" />
    <linearGradient
       inkscape:collect="always"
       xlink:href="#linearGradient5482"
       id="linearGradient3383"
       gradientUnits="userSpaceOnUse"
       x1="114.12504"
       y1="93.612633"
       x2="228.79941"
       y2="93.612633" />
    <linearGradient
       inkscape:collect="always"
       xlink:href="#linearGradient5482"
       id="linearGradient3385"
       gradientUnits="userSpaceOnUse"
       x1="114.12504"
       y1="93.612633"
       x2="228.79941"
       y2="93.612633" />
    <linearGradient
       inkscape:collect="always"
       xlink:href="#linearGradient5482"
       id="linearGradient3387"
       gradientUnits="userSpaceOnUse"
       x1="114.12504"
       y1="93.612633"
       x2="228.79941"
       y2="93.612633" />
    <linearGradient
       inkscape:collect="always"
       xlink:href="#linearGradient5482"
       id="linearGradient3389"
       gradientUnits="userSpaceOnUse"
       x1="114.12504"
       y1="93.612633"
       x2="228.79941"
       y2="93.612633" />
    <linearGradient
       inkscape:collect="always"
       xlink:href="#linearGradient5482"
       id="linearGradient3391"
       gradientUnits="userSpaceOnUse"
       x1="114.12504"
       y1="93.612633"
       x2="228.79941"
       y2="93.612633" />
    <linearGradient
       inkscape:collect="always"
       xlink:href="#linearGradient5482"
       id="linearGradient3393"
       gradientUnits="userSpaceOnUse"
       x1="114.12504"
       y1="93.612633"
       x2="228.79941"
       y2="93.612633" />
    <linearGradient
       inkscape:collect="always"
       xlink:href="#linearGradient5482"
       id="linearGradient3395"
       gradientUnits="userSpaceOnUse"
       x1="114.12504"
       y1="93.612633"
       x2="228.79941"
       y2="93.612633" />
    <linearGradient
       inkscape:collect="always"
       xlink:href="#linearGradient5482"
       id="linearGradient3397"
       gradientUnits="userSpaceOnUse"
       x1="114.12504"
       y1="93.612633"
       x2="228.79941"
       y2="93.612633" />
    <linearGradient
       inkscape:collect="always"
       xlink:href="#linearGradient5482"
       id="linearGradient4842"
       gradientUnits="userSpaceOnUse"
       x1="114.12504"
       y1="93.612633"
       x2="228.79941"
       y2="93.612633" />
    <linearGradient
       inkscape:collect="always"
       xlink:href="#linearGradient5482"
       id="linearGradient4844"
       gradientUnits="userSpaceOnUse"
       x1="114.12504"
       y1="93.612633"
       x2="228.79941"
       y2="93.612633" />
    <linearGradient
       inkscape:collect="always"
       xlink:href="#linearGradient5482"
       id="linearGradient4846"
       gradientUnits="userSpaceOnUse"
       x1="114.12504"
       y1="93.612633"
       x2="228.79941"
       y2="93.612633" />
    <linearGradient
       inkscape:collect="always"
       xlink:href="#linearGradient5482"
       id="linearGradient4848"
       gradientUnits="userSpaceOnUse"
       x1="114.12504"
       y1="93.612633"
       x2="228.79941"
       y2="93.612633" />
    <linearGradient
       inkscape:collect="always"
       xlink:href="#linearGradient5482"
       id="linearGradient4850"
       gradientUnits="userSpaceOnUse"
       x1="114.12504"
       y1="93.612633"
       x2="228.79941"
       y2="93.612633" />
    <linearGradient
       inkscape:collect="always"
       xlink:href="#linearGradient5482"
       id="linearGradient4852"
       gradientUnits="userSpaceOnUse"
       x1="114.12504"
       y1="93.612633"
       x2="228.79941"
       y2="93.612633" />
    <linearGradient
       inkscape:collect="always"
       xlink:href="#linearGradient5482"
       id="linearGradient4854"
       gradientUnits="userSpaceOnUse"
       x1="114.12504"
       y1="93.612633"
       x2="228.79941"
       y2="93.612633" />
    <linearGradient
       inkscape:collect="always"
       xlink:href="#linearGradient5482"
       id="linearGradient4856"
       gradientUnits="userSpaceOnUse"
       x1="114.12504"
       y1="93.612633"
       x2="228.79941"
       y2="93.612633" />
    <linearGradient
       inkscape:collect="always"
       xlink:href="#linearGradient5482"
       id="linearGradient4858"
       gradientUnits="userSpaceOnUse"
       x1="114.12504"
       y1="93.612633"
       x2="228.79941"
       y2="93.612633" />
    <linearGradient
       inkscape:collect="always"
       xlink:href="#linearGradient5482"
       id="linearGradient4860"
       gradientUnits="userSpaceOnUse"
       x1="114.12504"
       y1="93.612633"
       x2="228.79941"
       y2="93.612633" />
    <linearGradient
       inkscape:collect="always"
       xlink:href="#linearGradient5482"
       id="linearGradient4862"
       gradientUnits="userSpaceOnUse"
       x1="114.12504"
       y1="93.612633"
       x2="228.79941"
       y2="93.612633" />
    <linearGradient
       inkscape:collect="always"
       xlink:href="#linearGradient5482"
       id="linearGradient4864"
       gradientUnits="userSpaceOnUse"
       x1="114.12504"
       y1="93.612633"
       x2="228.79941"
       y2="93.612633" />
    <linearGradient
       inkscape:collect="always"
       xlink:href="#linearGradient5482"
       id="linearGradient4866"
       gradientUnits="userSpaceOnUse"
       x1="114.12504"
       y1="93.612633"
       x2="228.79941"
       y2="93.612633" />
    <linearGradient
       inkscape:collect="always"
       xlink:href="#linearGradient5482"
       id="linearGradient4868"
       gradientUnits="userSpaceOnUse"
       x1="114.12504"
       y1="93.612633"
       x2="228.79941"
       y2="93.612633" />
    <linearGradient
       inkscape:collect="always"
       xlink:href="#linearGradient5482"
       id="linearGradient4870"
       gradientUnits="userSpaceOnUse"
       x1="114.12504"
       y1="93.612633"
       x2="228.79941"
       y2="93.612633" />
    <linearGradient
       inkscape:collect="always"
       xlink:href="#linearGradient5482"
       id="linearGradient4872"
       gradientUnits="userSpaceOnUse"
       x1="114.12504"
       y1="93.612633"
       x2="228.79941"
       y2="93.612633" />
  </defs>
  <sodipodi:namedview
     id="base"
     pagecolor="#ffffff"
     bordercolor="#666666"
     borderopacity="1.0"
     inkscape:pageopacity="0.0"
     inkscape:pageshadow="2"
     inkscape:zoom="1.4142136"
     inkscape:cx="202.66754"
     inkscape:cy="161.16386"
     inkscape:document-units="px"
     inkscape:current-layer="layer1"
     showgrid="false"
     inkscape:window-width="1436"
     inkscape:window-height="855"
     inkscape:window-x="4"
     inkscape:window-y="0"
     inkscape:window-maximized="1"
     fit-margin-top="0"
     fit-margin-left="0"
     fit-margin-right="0"
     fit-margin-bottom="0" />
  <metadata
     id="metadata7">
    <rdf:RDF>
      <cc:Work
         rdf:about="">
        <dc:format>image/svg+xml</dc:format>
        <dc:type
           rdf:resource="http://purl.org/dc/dcmitype/StillImage" />
        <dc:title></dc:title>
      </cc:Work>
    </rdf:RDF>
  </metadata>
  <g
     inkscape:label="Calque 1"
     inkscape:groupmode="layer"
     id="layer1"
     transform="translate(-198.14742,132.66715)">
    <g
       transform="translate(62.867548,-211.36396)"
       id="g3910"
       style="stroke:#006ab6;stroke-opacity:1">
      <path
         transform="matrix(0.80398094,0,0,0.80398094,239.20455,28.023944)"
         sodipodi:type="arc"
         style="fill:#ffffff;fill-opacity:1;fill-rule:evenodd;stroke:#006ab6;stroke-width:1px;stroke-linecap:butt;stroke-linejoin:miter;stroke-opacity:1"
         id="path3912"
         sodipodi:cx="165.15994"
         sodipodi:cy="230.09801"
         sodipodi:rx="7.5761442"
         sodipodi:ry="7.0710678"
         d="m 172.73609,230.09801 c 0,3.90524 -3.39196,7.07107 -7.57615,7.07107 -4.18419,0 -7.57614,-3.16583 -7.57614,-7.07107 0,-3.90525 3.39195,-7.07107 7.57614,-7.07107 4.18419,0 7.57615,3.16582 7.57615,7.07107 z" />
      <path
         d="m 172.73609,230.09801 c 0,3.90524 -3.39196,7.07107 -7.57615,7.07107 -4.18419,0 -7.57614,-3.16583 -7.57614,-7.07107 0,-3.90525 3.39195,-7.07107 7.57614,-7.07107 4.18419,0 7.57615,3.16582 7.57615,7.07107 z"
         sodipodi:ry="7.0710678"
         sodipodi:rx="7.5761442"
         sodipodi:cy="230.09801"
         sodipodi:cx="165.15994"
         id="path3914"
         style="fill:#000000;fill-opacity:1;fill-rule:evenodd;stroke:#006ab6;stroke-width:1px;stroke-linecap:butt;stroke-linejoin:miter;stroke-opacity:1"
         sodipodi:type="arc"
         transform="matrix(0.45817331,0,0,0.45817331,296.33448,107.5936)" />
    </g>
    <text
       xml:space="preserve"
       style="font-size:40px;font-style:normal;font-weight:normal;line-height:100%;letter-spacing:0px;word-spacing:0px;fill:#000000;fill-opacity:1;stroke:none;font-family:Sans"
       x="419.29611"
       y="31.712517"
       id="text3939"
       sodipodi:linespacing="100%"><tspan
         sodipodi:role="line"
         id="tspan3941"
         x="419.29611"
         y="31.712517"
         style="font-size:20px;line-height:100%">K+1</tspan></text>
    <g
       style="fill:url(#linearGradient4856);fill-opacity:1"
       transform="matrix(0.4382434,-0.89885635,0.89885635,0.4382434,100.78444,205.31808)"
       id="g3367">
      <path
         style="fill:url(#linearGradient4842);fill-opacity:1;stroke:#000000;stroke-width:1px;stroke-linecap:butt;stroke-linejoin:miter;stroke-opacity:1"
         d="M 120.16321,96.6276 214.0772,94.040352"
         id="path3369"
         inkscape:connector-curvature="0" />
      <path
         style="fill:url(#linearGradient4844);fill-opacity:1;stroke:#000000;stroke-width:1px;stroke-linecap:butt;stroke-linejoin:miter;stroke-opacity:1"
         d="m 169.60051,45.720437 0.0155,97.190113"
         id="path3371"
         inkscape:connector-curvature="0" />
      <path
         sodipodi:type="arc"
         style="fill:url(#linearGradient4846);fill-opacity:1;fill-rule:evenodd;stroke:#000000;stroke-width:1px;stroke-linecap:butt;stroke-linejoin:miter;stroke-opacity:1"
         id="path3373"
         sodipodi:cx="165.15994"
         sodipodi:cy="230.09801"
         sodipodi:rx="7.5761442"
         sodipodi:ry="7.0710678"
         d="m 172.73609,230.09801 c 0,3.90524 -3.39196,7.07107 -7.57615,7.07107 -4.18419,0 -7.57614,-3.16583 -7.57614,-7.07107 0,-3.90525 3.39195,-7.07107 7.57614,-7.07107 4.18419,0 7.57615,3.16582 7.57615,7.07107 z"
         transform="matrix(0.6133467,0.78981379,-0.78981379,0.6133467,202.32469,-174.37067)" />
      <path
         d="m 172.73609,230.09801 c 0,3.90524 -3.39196,7.07107 -7.57615,7.07107 -4.18419,0 -7.57614,-3.16583 -7.57614,-7.07107 0,-3.90525 3.39195,-7.07107 7.57614,-7.07107 4.18419,0 7.57615,3.16582 7.57615,7.07107 z"
         sodipodi:ry="7.0710678"
         sodipodi:rx="7.5761442"
         sodipodi:cy="230.09801"
         sodipodi:cx="165.15994"
         id="path3375"
         style="fill:url(#linearGradient4848);fill-opacity:1;fill-rule:evenodd;stroke:#000000;stroke-width:1px;stroke-linecap:butt;stroke-linejoin:miter;stroke-opacity:1"
         sodipodi:type="arc"
         transform="matrix(0.6133467,0.78981379,-0.78981379,0.6133467,250.16956,-228.35776)" />
      <path
         transform="matrix(0.6133467,0.78981379,-0.78981379,0.6133467,301.4683,-177.4332)"
         sodipodi:type="arc"
         style="fill:url(#linearGradient4850);fill-opacity:1;fill-rule:evenodd;stroke:#000000;stroke-width:1px;stroke-linecap:butt;stroke-linejoin:miter;stroke-opacity:1"
         id="path3377"
         sodipodi:cx="165.15994"
         sodipodi:cy="230.09801"
         sodipodi:rx="7.5761442"
         sodipodi:ry="7.0710678"
         d="m 172.73609,230.09801 c 0,3.90524 -3.39196,7.07107 -7.57615,7.07107 -4.18419,0 -7.57614,-3.16583 -7.57614,-7.07107 0,-3.90525 3.39195,-7.07107 7.57614,-7.07107 4.18419,0 7.57615,3.16582 7.57615,7.07107 z" />
      <path
         d="m 172.73609,230.09801 c 0,3.90524 -3.39196,7.07107 -7.57615,7.07107 -4.18419,0 -7.57614,-3.16583 -7.57614,-7.07107 0,-3.90525 3.39195,-7.07107 7.57614,-7.07107 4.18419,0 7.57615,3.16582 7.57615,7.07107 z"
         sodipodi:ry="7.0710678"
         sodipodi:rx="7.5761442"
         sodipodi:cy="230.09801"
         sodipodi:cx="165.15994"
         id="path3379"
         style="fill:url(#linearGradient4852);fill-opacity:1;fill-rule:evenodd;stroke:#000000;stroke-width:1px;stroke-linecap:butt;stroke-linejoin:miter;stroke-opacity:1"
         sodipodi:type="arc"
         transform="matrix(0.6133467,0.78981379,-0.78981379,0.6133467,248.90219,-127.56788)" />
      <path
         transform="matrix(1.2801288,1.2268325,-0.69191785,0.72197623,118.35038,-273.19822)"
         sodipodi:type="arc"
         style="fill:url(#linearGradient4854);fill-opacity:1;fill-rule:evenodd;stroke:#000000;stroke-width:1px;stroke-linecap:butt;stroke-linejoin:miter;stroke-opacity:1"
         id="path3381"
         sodipodi:cx="165.15994"
         sodipodi:cy="230.09801"
         sodipodi:rx="7.5761442"
         sodipodi:ry="7.0710678"
         d="m 172.73609,230.09801 c 0,3.90524 -3.39196,7.07107 -7.57615,7.07107 -4.18419,0 -7.57614,-3.16583 -7.57614,-7.07107 0,-3.90525 3.39195,-7.07107 7.57614,-7.07107 4.18419,0 7.57615,3.16582 7.57615,7.07107 z" />
    </g>
    <g
       style="stroke:#ff7b00;stroke-opacity:1"
       id="g3173"
       transform="translate(258.85714,-315)">
      <path
         d="m 172.73609,230.09801 c 0,3.90524 -3.39196,7.07107 -7.57615,7.07107 -4.18419,0 -7.57614,-3.16583 -7.57614,-7.07107 0,-3.90525 3.39195,-7.07107 7.57614,-7.07107 4.18419,0 7.57615,3.16582 7.57615,7.07107 z"
         sodipodi:ry="7.0710678"
         sodipodi:rx="7.5761442"
         sodipodi:cy="230.09801"
         sodipodi:cx="165.15994"
         id="path3175"
         style="fill:#ffffff;fill-opacity:1;fill-rule:evenodd;stroke:#ff7b00;stroke-width:1px;stroke-linecap:butt;stroke-linejoin:miter;stroke-opacity:1"
         sodipodi:type="arc"
         transform="matrix(0.80398094,0,0,0.80398094,239.20455,28.023944)" />
      <path
         transform="matrix(0.45817331,0,0,0.45817331,296.33448,107.5936)"
         sodipodi:type="arc"
         style="fill:#000000;fill-opacity:1;fill-rule:evenodd;stroke:#ff7b00;stroke-width:1px;stroke-linecap:butt;stroke-linejoin:miter;stroke-opacity:1"
         id="path3177"
         sodipodi:cx="165.15994"
         sodipodi:cy="230.09801"
         sodipodi:rx="7.5761442"
         sodipodi:ry="7.0710678"
         d="m 172.73609,230.09801 c 0,3.90524 -3.39196,7.07107 -7.57615,7.07107 -4.18419,0 -7.57614,-3.16583 -7.57614,-7.07107 0,-3.90525 3.39195,-7.07107 7.57614,-7.07107 4.18419,0 7.57615,3.16582 7.57615,7.07107 z" />
    </g>
    <text
       sodipodi:linespacing="100%"
       id="text3179"
       y="-71.923523"
       x="660.36383"
       style="font-size:40px;font-style:normal;font-weight:normal;text-align:center;line-height:100%;letter-spacing:0px;word-spacing:0px;text-anchor:middle;fill:#000000;fill-opacity:1;stroke:none;font-family:Sans"
       xml:space="preserve"><tspan
         style="font-size:20px;text-align:center;line-height:100%;text-anchor:middle"
         y="-71.923523"
         x="660.36383"
         id="tspan3181"
         sodipodi:role="line">control</tspan><tspan
         style="font-size:20px;text-align:center;line-height:100%;text-anchor:middle"
         y="-51.923523"
         x="660.36383"
         sodipodi:role="line"
         id="tspan3183">waypoint</tspan></text>
    <path
       style="fill:none;stroke:#000000;stroke-width:1;stroke-linecap:butt;stroke-linejoin:miter;stroke-miterlimit:4;stroke-opacity:1;stroke-dasharray:8, 8;stroke-dashoffset:0"
       d="M 180,-65.070007 551,-262.07001"
       id="path3974"
       inkscape:connector-curvature="0"
       transform="translate(80.534317,159.28933)" />
    <path
       style="fill:none;stroke:#000000;stroke-width:1px;stroke-linecap:butt;stroke-linejoin:miter;stroke-opacity:1;marker-start:url(#TriangleInL);marker-end:url(#TriangleOutL)"
       d="m 180.31223,-278.28382 0,211.424924 363.45288,0"
       id="path4438"
       inkscape:connector-curvature="0"
       transform="translate(80.534317,159.28933)" />
    <text
       sodipodi:linespacing="100%"
       id="text4808"
       y="110.90848"
       x="629.30682"
       style="font-size:40px;font-style:normal;font-weight:normal;line-height:100%;letter-spacing:0px;word-spacing:0px;fill:#000000;fill-opacity:1;stroke:none;font-family:Sans"
       xml:space="preserve"><tspan
         style="font-size:20px;line-height:100%"
         y="110.90848"
         x="629.30682"
         id="tspan4810"
         sodipodi:role="line">x</tspan></text>
    <text
       xml:space="preserve"
       style="font-size:40px;font-style:normal;font-weight:normal;line-height:100%;letter-spacing:0px;word-spacing:0px;fill:#000000;fill-opacity:1;stroke:none;font-family:Sans"
       x="238.27678"
       y="-121.72965"
       id="text4812"
       sodipodi:linespacing="100%"><tspan
         sodipodi:role="line"
         id="tspan4814"
         x="238.27678"
         y="-121.72965"
         style="font-size:20px;line-height:100%">y</tspan></text>
    <g
       id="g4816"
       transform="matrix(0.4382434,-0.89885635,0.89885635,0.4382434,100.78444,205.31808)"
       style="fill:url(#linearGradient4872);fill-opacity:1">
      <path
         inkscape:connector-curvature="0"
         id="path4818"
         d="M 120.16321,96.6276 214.0772,94.040352"
         style="fill:url(#linearGradient4858);fill-opacity:1;stroke:#000000;stroke-width:1px;stroke-linecap:butt;stroke-linejoin:miter;stroke-opacity:1" />
      <path
         inkscape:connector-curvature="0"
         id="path4820"
         d="m 169.60051,45.720437 0.0155,97.190113"
         style="fill:url(#linearGradient4860);fill-opacity:1;stroke:#000000;stroke-width:1px;stroke-linecap:butt;stroke-linejoin:miter;stroke-opacity:1" />
      <path
         transform="matrix(0.6133467,0.78981379,-0.78981379,0.6133467,202.32469,-174.37067)"
         d="m 172.73609,230.09801 c 0,3.90524 -3.39196,7.07107 -7.57615,7.07107 -4.18419,0 -7.57614,-3.16583 -7.57614,-7.07107 0,-3.90525 3.39195,-7.07107 7.57614,-7.07107 4.18419,0 7.57615,3.16582 7.57615,7.07107 z"
         sodipodi:ry="7.0710678"
         sodipodi:rx="7.5761442"
         sodipodi:cy="230.09801"
         sodipodi:cx="165.15994"
         id="path4822"
         style="fill:url(#linearGradient4862);fill-opacity:1;fill-rule:evenodd;stroke:#000000;stroke-width:1px;stroke-linecap:butt;stroke-linejoin:miter;stroke-opacity:1"
         sodipodi:type="arc" />
      <path
         transform="matrix(0.6133467,0.78981379,-0.78981379,0.6133467,250.16956,-228.35776)"
         sodipodi:type="arc"
         style="fill:url(#linearGradient4864);fill-opacity:1;fill-rule:evenodd;stroke:#000000;stroke-width:1px;stroke-linecap:butt;stroke-linejoin:miter;stroke-opacity:1"
         id="path4824"
         sodipodi:cx="165.15994"
         sodipodi:cy="230.09801"
         sodipodi:rx="7.5761442"
         sodipodi:ry="7.0710678"
         d="m 172.73609,230.09801 c 0,3.90524 -3.39196,7.07107 -7.57615,7.07107 -4.18419,0 -7.57614,-3.16583 -7.57614,-7.07107 0,-3.90525 3.39195,-7.07107 7.57614,-7.07107 4.18419,0 7.57615,3.16582 7.57615,7.07107 z" />
      <path
         d="m 172.73609,230.09801 c 0,3.90524 -3.39196,7.07107 -7.57615,7.07107 -4.18419,0 -7.57614,-3.16583 -7.57614,-7.07107 0,-3.90525 3.39195,-7.07107 7.57614,-7.07107 4.18419,0 7.57615,3.16582 7.57615,7.07107 z"
         sodipodi:ry="7.0710678"
         sodipodi:rx="7.5761442"
         sodipodi:cy="230.09801"
         sodipodi:cx="165.15994"
         id="path4826"
         style="fill:url(#linearGradient4866);fill-opacity:1;fill-rule:evenodd;stroke:#000000;stroke-width:1px;stroke-linecap:butt;stroke-linejoin:miter;stroke-opacity:1"
         sodipodi:type="arc"
         transform="matrix(0.6133467,0.78981379,-0.78981379,0.6133467,301.4683,-177.4332)" />
      <path
         transform="matrix(0.6133467,0.78981379,-0.78981379,0.6133467,248.90219,-127.56788)"
         sodipodi:type="arc"
         style="fill:url(#linearGradient4868);fill-opacity:1;fill-rule:evenodd;stroke:#000000;stroke-width:1px;stroke-linecap:butt;stroke-linejoin:miter;stroke-opacity:1"
         id="path4828"
         sodipodi:cx="165.15994"
         sodipodi:cy="230.09801"
         sodipodi:rx="7.5761442"
         sodipodi:ry="7.0710678"
         d="m 172.73609,230.09801 c 0,3.90524 -3.39196,7.07107 -7.57615,7.07107 -4.18419,0 -7.57614,-3.16583 -7.57614,-7.07107 0,-3.90525 3.39195,-7.07107 7.57614,-7.07107 4.18419,0 7.57615,3.16582 7.57615,7.07107 z" />
      <path
         d="m 172.73609,230.09801 c 0,3.90524 -3.39196,7.07107 -7.57615,7.07107 -4.18419,0 -7.57614,-3.16583 -7.57614,-7.07107 0,-3.90525 3.39195,-7.07107 7.57614,-7.07107 4.18419,0 7.57615,3.16582 7.57615,7.07107 z"
         sodipodi:ry="7.0710678"
         sodipodi:rx="7.5761442"
         sodipodi:cy="230.09801"
         sodipodi:cx="165.15994"
         id="path4830"
         style="fill:url(#linearGradient4870);fill-opacity:1;fill-rule:evenodd;stroke:#000000;stroke-width:1px;stroke-linecap:butt;stroke-linejoin:miter;stroke-opacity:1"
         sodipodi:type="arc"
         transform="matrix(1.2801288,1.2268325,-0.69191785,0.72197623,118.35038,-273.19822)" />
    </g>
    <path
       style="fill:none;stroke:#0000a8;stroke-width:1;stroke-linecap:butt;stroke-linejoin:miter;stroke-miterlimit:4;stroke-opacity:1;stroke-dasharray:2, 2;stroke-dashoffset:0"
       d="m 179.60512,-158.78278 175.36248,0 0,91.216777"
       id="path4832"
       inkscape:connector-curvature="0"
       transform="translate(80.534317,159.28933)" />
    <text
       xml:space="preserve"
       style="font-size:40px;font-style:normal;font-weight:normal;line-height:100%;letter-spacing:0px;word-spacing:0px;fill:#000000;fill-opacity:1;stroke:none;font-family:Sans"
       x="409.39664"
       y="111.61559"
       id="text4834"
       sodipodi:linespacing="100%"><tspan
         sodipodi:role="line"
         id="tspan4836"
         x="409.39664"
         y="111.61559"
         style="font-size:16px;line-height:100%">error x</tspan></text>
    <text
       sodipodi:linespacing="100%"
       id="text4838"
       y="2.7211487"
       x="197.2646"
       style="font-size:40px;font-style:normal;font-weight:normal;line-height:100%;letter-spacing:0px;word-spacing:0px;fill:#000000;fill-opacity:1;stroke:none;font-family:Sans"
       xml:space="preserve"><tspan
         style="font-size:16px;line-height:100%"
         y="2.7211487"
         x="197.2646"
         id="tspan4840"
         sodipodi:role="line">error y</tspan></text>
  </g>
</svg>
